<svg xmlns:rdf="http://www.w3.org/1999/02/22-rdf-syntax-ns#" xmlns:svg="http://www.w3.org/2000/svg" xmlns="http://www.w3.org/2000/svg" xml:space="preserve" enable-background="new -275 387 40 40" viewBox="-275 387 40 40" y="0px" x="0px"><path d="M-235,395.5c-1.5,0.6-3.1,1-4.7,1.2c1.7-0.9,3-2.4,3.6-4.2  c-1.6,0.9-3.3,1.5-5.2,1.9c-1.5-1.5-3.6-2.4-6-2.4c-4.5,0-8.2,3.4-8.2,7.6c0,0.6,0.1,1.2,0.2,1.7c-6.8-0.3-12.8-3.3-16.9-8  c-0.7,1.1-1.1,2.4-1.1,3.8c0,2.6,1.4,5,3.7,6.4c-1.3,0-2.6-0.4-3.7-0.9c0,0,0,0.1,0,0.1c0,3.7,2.8,6.8,6.6,7.5  c-0.7,0.2-1.4,0.3-2.2,0.3c-0.5,0-1-0.1-1.5-0.1c1,3,4.1,5.2,7.7,5.3c-2.8,2-6.3,3.3-10.2,3.3c-0.7,0-1.3,0-2-0.1  c3.6,2.2,7.9,3.4,12.6,3.4c15.1,0,23.3-11.6,23.3-21.7c0-0.3,0-0.7,0-1C-237.5,398.3-236.1,397-235,395.5z" fill="#ab2d23" /></svg>