<svg xmlns:rdf="http://www.w3.org/1999/02/22-rdf-syntax-ns#" xmlns:svg="http://www.w3.org/2000/svg" xmlns="http://www.w3.org/2000/svg" xml:space="preserve" enable-background="new -90 572 40 40" viewBox="-90 572 40 40" y="0px" x="0px"><path d="M-50,596.3v14.8h-8.6v-13.8c0-3.5-1.2-5.8-4.3-5.8c-2.4,0-3.8,1.6-4.4,3.1 c-0.2,0.6-0.3,1.3-0.3,2.1v14.4h-8.6c0,0,0.1-23.4,0-25.8h8.6v3.7c0,0,0,0.1-0.1,0.1h0.1V589c1.1-1.8,3.2-4.3,7.7-4.3 C-54.2,584.7-50,588.4-50,596.3z M-85.1,572.9c-2.9,0-4.9,1.9-4.9,4.5c0,2.5,1.9,4.5,4.7,4.5h0.1c3,0,4.9-2,4.9-4.5 C-80.4,574.8-82.2,572.9-85.1,572.9z M-89.5,611.1h8.6v-25.8h-8.6V611.1z" fill="#f6f6f6" /></svg>